<?xml version="1.0" encoding="utf-8"?>
<!-- Generator: Adobe Illustrator 25.2.0, SVG Export Plug-In . SVG Version: 6.00 Build 0)  -->
<svg version="1.1" id="Layer_1" xmlns="http://www.w3.org/2000/svg" xmlns:xlink="http://www.w3.org/1999/xlink" x="0px" y="0px"
	 viewBox="0 0 464 433" style="enable-background:new 0 0 464 433;" xml:space="preserve">
<style type="text/css">
	.st0{fill:#253F4B;}
</style>
<path class="st0" d="M103.7,227.8c-8.4,3.5-16.8,6.8-25,10.4s-16.4,7.6-24.7,11.4c-0.2-0.5-0.4-0.9-0.5-1.4
	c-2.8-16.6-3.5-33.5-2-50.2c3.2-35.7,16.1-67.5,38.4-95.6c16.7-21.1,36.8-38.1,60.9-50.4c15.6-7.9,32.4-13.3,49.8-16
	c16.2-2.6,32.6-3,48.9-1.4c36.4,3.5,68.5,17.2,96.2,41.2c16.9,14.6,31.2,31.3,42,50.9c10.5,19,17.5,39.7,20.6,61.2
	c2,13.3,2.6,26.8,2,40.2c-1.3,31-9.8,59.9-26.6,86.1c-0.5,0.8-1.1,1.6-1.7,2.5c-16.9-6.5-31.4-16.6-45.9-27.1l1.8-2.9
	c10-15.9,16.3-33.9,18.4-52.6c1.5-11.8,1.6-23.7,0.3-35.5c-3.3-26.6-13.7-49.9-31.7-69.9c-9.5-10.6-20-20-32.3-27.3
	c-13.8-8.3-29.3-13.6-45.3-15.6c-29.5-3.8-57.2,1.5-82.4,17.4s-42.8,38.1-53,66c-6.5,17.6-9.3,36.4-8.2,55.2
	C103.8,225.6,103.7,226.8,103.7,227.8z"/>
<path class="st0" d="M413.3,345.6v49.1c-31.1,0.9-59.1-8.6-85.5-24c-38.5,24.2-80.2,33.1-125.1,26.7c-36.1-5.2-67.6-20.6-94.2-45.6
	c-22.9-21.5-38.9-47.4-48.6-77.3c0.4-0.3,0.8-0.6,1.2-0.8c17.6-8.7,35.3-17.1,53.9-23.5c15.5-5.3,31.7-8.1,48.1-8.2
	c39.6-0.4,75.9,10.6,109.2,31.8c13.7,8.7,26.5,18.6,39.5,28.2c11.9,8.9,23.9,17.7,36.6,25.4c10.6,6.4,21.7,11.9,33.8,15.2
	c7.8,2.1,15.8,3.1,23.9,3.1H413.3z M282.2,337.9c-0.9-0.9-1.5-1.5-2.2-2c-3.7-3.1-7.4-6.4-11.2-9.4c-28.8-22.2-60.8-36.5-97.5-39.1
	c-12.3-0.9-24.6,0-36.6,2.7c-2.6,0.6-5,1.4-7.9,2.1c0.7,1,1.1,1.8,1.7,2.5c10.9,15,24.9,27.5,40.9,36.9c16.8,9.9,35.6,15.7,55,17
	c13.5,0.9,27.1-0.6,40.1-4.4C270.5,342.5,276.4,340.4,282.2,337.9L282.2,337.9z"/>
</svg>
