<?xml version="1.0" encoding="utf-8"?>
<!-- Generator: Adobe Illustrator 25.2.0, SVG Export Plug-In . SVG Version: 6.00 Build 0)  -->
<svg version="1.1" id="Layer_1" xmlns="http://www.w3.org/2000/svg" xmlns:xlink="http://www.w3.org/1999/xlink" x="0px" y="0px"
	 viewBox="0 0 1468 433" style="enable-background:new 0 0 1468 433;" xml:space="preserve">
<style type="text/css">
	.st0{fill:#FFFFFF;}
	.st1{fill:#253F4B;}
</style>
<path class="st0" d="M701.7,291.5c-27.6,0-46.8-14.8-46.8-47.7v-78.6c0-12.9,6.7-19.2,17.7-19.2s17.6,6.3,17.6,19.2v69.6
	c0,19.8,11.3,27.4,25.3,27.4c18.2,0,29.9-12.2,29.9-29v-68c0-12.9,6.7-19.2,17.7-19.2s17.7,6.3,17.7,19.2v107
	c0,12.2-7.1,18.8-17.4,18.8s-16.8-5.8-17.2-17.4v-7.6h-1.9C739.8,279.1,726,291.5,701.7,291.5z"/>
<path class="st0" d="M842.3,92.8c11.7,0,20.1,7.8,20.1,18.5s-8.4,18.6-20.1,18.6c-11.4,0-20-7.9-20-18.6S830.9,92.8,842.3,92.8z
	 M842.3,291c-10.9,0-17.6-6.7-17.6-19.5V165.6c0-12.9,6.7-19.6,17.7-19.6s17.6,6.7,17.6,19.6v105.9C860,284.4,853.3,291,842.3,291z"
	/>
<path class="st0" d="M913.6,254.2l59.7-77v-1.9h-54c-9.9,0-15.3-5.8-15.3-14.4s5.4-14.2,15.3-14.2h77.5c11.8,0,18.6,6.3,18.6,15.7
	c0,6.7-2.7,12.6-9,20.2l-59.2,77.1v1.9h55.9c9.7,0,15.3,5.6,15.3,13.8c0,8.9-5.6,14.6-15.3,14.6h-79.9c-11.9,0-18.8-6.6-18.8-16
	C904.4,267.5,907.4,261.8,913.6,254.2z"/>
<path class="st1" d="M1163.8,176.1h-7.2c-9.5,0-15-5.2-15-13.8s5.5-13.8,15-13.8h7.9v-18.5c0-12.2,6.3-19,17.2-19s17.3,6.8,17.3,19
	v18.5h14.1c9.7,0,15.2,5.2,15.2,13.8s-5.5,13.8-15.2,13.8h-13.8v71.6c0,12.9,3.5,17.2,14.1,17.2c3.8,0,6.2-0.5,9.4-0.5
	c6.2,0,10.5,4.2,10.5,10.7c0.1,5.2-2.7,10.1-7.2,12.6c-5,3.2-12.2,4.8-21.9,4.8c-28,0-40.2-11.8-40.2-40.9L1163.8,176.1z"/>
<g>
	<path class="st1" d="M305.2,230c-8.4,3.5-16.7,6.7-24.9,10.4c-8.2,3.6-16.3,7.5-24.6,11.4c-0.2-0.5-0.4-0.9-0.6-1.4
		c-2.8-16.5-3.5-33.3-2-50c3.2-35.5,16-67.2,38.2-95.1c16.7-21,36.6-38,60.6-50.2c15.6-7.9,32.3-13.3,49.5-16
		c16.1-2.5,32.5-3,48.7-1.4c36.3,3.5,68.2,17.2,95.8,41c16.8,14.5,31,31.2,41.9,50.6c10.5,18.9,17.4,39.6,20.5,61
		c1.9,13.3,2.6,26.7,2,40.1c-1.3,30.9-9.8,59.6-26.5,85.8c-0.5,0.8-1.1,1.6-1.7,2.5c-16.8-6.5-31.3-16.6-45.7-27
		c0.7-1.1,1.2-2,1.8-2.9c10-15.9,16.2-33.8,18.3-52.4c1.5-11.7,1.6-23.6,0.3-35.3c-2.9-25.9-14-50.3-31.5-69.6
		c-9.5-10.5-19.9-19.9-32.1-27.2c-13.8-8.3-29.1-13.6-45.1-15.6c-29.4-3.8-57,1.5-82,17.3s-42.6,37.9-52.7,65.7
		c-6.5,17.6-9.3,36.3-8.1,55C305.3,227.8,305.2,229,305.2,230z"/>
	<path class="st1" d="M613.4,347.3v48.9c-31,0.9-58.8-8.5-85.1-23.9c-38.3,24.2-79.8,33-124.6,26.6c-36-5.2-67.3-20.5-93.8-45.4
		c-22.8-21.4-38.7-47.2-48.4-77c0.4-0.3,0.8-0.6,1.2-0.8c17.5-8.7,35.2-17,53.7-23.4c15.4-5.3,31.6-8,47.9-8.1
		c39.4-0.4,75.5,10.6,108.7,31.7c13.6,8.6,26.4,18.5,39.3,28.1c11.9,8.8,23.8,17.6,36.5,25.2c10.6,6.4,21.6,11.8,33.6,15.1
		c7.7,2.1,15.7,3.1,23.7,3.1H613.4z M482.9,339.7c-0.9-0.9-1.5-1.5-2.2-2c-3.7-3.1-7.3-6.4-11.1-9.3c-28.7-22.1-60.6-36.3-97.1-39
		c-12.2-0.9-24.5,0-36.5,2.7c-2.5,0.6-5,1.4-7.8,2.1c0.7,1,1.1,1.8,1.7,2.5c10.9,14.9,24.8,27.4,40.7,36.7
		c16.7,9.8,35.4,15.6,54.7,16.9c13.5,0.9,27-0.6,40-4.4C471.2,344.2,477.1,342.1,482.9,339.7L482.9,339.7z"/>
</g>
<path class="st1" d="M1079.9,92c11.7,0,20.1,7.8,20.1,18.5s-8.4,18.6-20.1,18.6c-11.4,0-20-7.9-20-18.6S1068.5,92,1079.9,92z
	 M1079.9,290.2c-10.9,0-17.6-6.7-17.6-19.5V164.8c0-12.9,6.7-19.6,17.7-19.6s17.6,6.7,17.6,19.6v105.9
	C1097.6,283.6,1090.9,290.2,1079.9,290.2z"/>
</svg>
